<svg  viewBox="0 0 1920 854" fill="none" xmlns="http://www.w3.org/2000/svg">
<g clip-path="url(#clip0_1_2)">
<mask id="mask0_1_2" style="mask-type:alpha" maskUnits="userSpaceOnUse" x="0" y="362" width="1920" height="124">
<rect y="362" width="1920" height="124" fill="#262006"/>
</mask>
<g mask="url(#mask0_1_2)">
<g filter="url(#filter0_i_1_2)">
<rect y="362" width="1920" height="124" fill="#262006"/>
</g>
<g filter="url(#filter1_f_1_2)">
<ellipse cx="959.5" cy="362" rx="600.5" ry="349" fill="#262006"/>
</g>
</g>
<path d="M1427.83 326.798C1425.14 388.624 1409.69 455.827 1415.73 570.743C1421.78 685.66 1427.83 776.383 1437.91 812.673" stroke="url(#paint0_linear_1_2)" stroke-width="80.6431" stroke-linecap="round"/>
<path d="M1429.81 362.894C1452.08 362.894 1470.37 344.784 1467.9 322.652C1458.81 241.212 1422.35 164.792 1363.85 106.289C1295.79 38.2334 1203.49 7.26633e-06 1107.24 0C1011 -7.26633e-06 918.692 38.2333 850.636 106.289C792.134 164.792 755.669 241.212 746.584 322.652C744.115 344.784 762.4 362.894 784.669 362.894L1107.24 362.894H1429.81Z" fill="#847757"/>
<path d="M1429.81 362.894C1452.08 362.894 1470.37 344.784 1467.9 322.652C1458.81 241.212 1422.35 164.792 1363.85 106.289C1295.79 38.2334 1203.49 7.26633e-06 1107.24 0C1011 -7.26633e-06 918.692 38.2333 850.636 106.289C792.134 164.792 755.669 241.212 746.584 322.652C744.115 344.784 762.4 362.894 784.669 362.894L1107.24 362.894H1429.81Z" fill="url(#paint1_linear_1_2)"/>
<path d="M521 105L530.75 269.125L651 217.125L521 105Z" fill="#847757"/>
<path d="M768.648 93L698.314 203.842L800.474 226.324L768.648 93Z" fill="#847757"/>
<path d="M865.312 362.894C887.581 362.894 906.019 344.683 901.841 322.809C893.866 281.045 873.538 242.279 843.041 211.782C802.964 171.705 748.607 149.19 691.929 149.19C635.251 149.19 580.895 171.705 540.818 211.782C510.321 242.279 489.993 281.045 482.017 322.809C477.84 344.683 496.278 362.894 518.547 362.894L691.929 362.894H865.312Z" fill="#847757"/>
<path d="M865.312 362.894C887.581 362.894 906.019 344.683 901.841 322.809C893.866 281.045 873.538 242.279 843.041 211.782C802.964 171.705 748.607 149.19 691.929 149.19C635.251 149.19 580.895 171.705 540.818 211.782C510.321 242.279 489.993 281.045 482.017 322.809C477.84 344.683 496.278 362.894 518.547 362.894L691.929 362.894H865.312Z" fill="url(#paint2_linear_1_2)" fill-opacity="0.5"/>
<path d="M712.09 310.476C712.09 321.61 703.064 330.637 691.929 330.637C680.795 330.637 671.768 321.61 671.768 310.476C671.768 299.341 680.795 298.379 691.929 298.379C703.064 298.379 712.09 299.341 712.09 310.476Z" fill="#FD6E72"/>
<rect x="445.968" y="261.661" width="8.06431" height="185.479" rx="4.03215" transform="rotate(-71.2232 445.968 261.661)" fill="#342406"/>
<rect x="466.129" y="346.765" width="4.03215" height="157.254" rx="2.01608" transform="rotate(-90 466.129 346.765)" fill="#342406"/>
<rect x="776.615" y="345.745" width="8.0643" height="145.158" rx="4.03215" transform="rotate(-85.833 776.615 345.745)" fill="#342406"/>
<rect x="450" y="310.462" width="4.03215" height="111.68" rx="2.01608" transform="rotate(-85.2729 450 310.462)" fill="#342406"/>
<rect x="805.143" y="313.348" width="4.03215" height="88.9106" rx="2.01608" transform="rotate(-94.4619 805.143 313.348)" fill="#342406"/>
<rect x="766.007" y="309.577" width="4.03215" height="182.764" rx="2.01608" transform="rotate(-111.822 766.007 309.577)" fill="#342406"/>
<path d="M612.496 264.106C609.601 264.106 607.201 266.476 607.776 269.313C608.792 274.324 611.261 278.969 614.93 282.639C619.846 287.554 626.512 290.315 633.463 290.315C640.414 290.315 647.08 287.554 651.996 282.639C655.665 278.969 658.134 274.324 659.15 269.313C659.725 266.476 657.325 264.106 654.43 264.106V264.106C651.535 264.106 649.27 266.516 648.323 269.252C647.551 271.479 646.281 273.527 644.583 275.226C641.633 278.175 637.634 279.832 633.463 279.832C629.292 279.832 625.293 278.175 622.343 275.226C620.645 273.527 619.375 271.479 618.603 269.252C617.656 266.516 615.391 264.106 612.496 264.106V264.106Z" fill="#342406"/>
<path d="M729.428 264.106C726.533 264.106 724.134 266.476 724.709 269.313C725.725 274.324 728.194 278.969 731.863 282.639C736.778 287.554 743.444 290.315 750.396 290.315C757.347 290.315 764.013 287.554 768.928 282.639C772.597 278.969 775.066 274.324 776.082 269.313C776.657 266.476 774.258 264.106 771.363 264.106V264.106C768.468 264.106 766.203 266.516 765.255 269.252C764.484 271.479 763.214 273.527 761.515 275.226C758.566 278.175 754.566 279.832 750.396 279.832C746.225 279.832 742.225 278.175 739.276 275.226C737.577 273.527 736.307 271.479 735.536 269.252C734.588 266.516 732.323 264.106 729.428 264.106V264.106Z" fill="#342406"/>
</g>
<defs>
<filter id="filter0_i_1_2" x="0" y="362" width="1920" height="125" filterUnits="userSpaceOnUse" color-interpolation-filters="sRGB">
<feFlood flood-opacity="0" result="BackgroundImageFix"/>
<feBlend mode="normal" in="SourceGraphic" in2="BackgroundImageFix" result="shape"/>
<feColorMatrix in="SourceAlpha" type="matrix" values="0 0 0 0 0 0 0 0 0 0 0 0 0 0 0 0 0 0 127 0" result="hardAlpha"/>
<feOffset dy="1"/>
<feGaussianBlur stdDeviation="0.5"/>
<feComposite in2="hardAlpha" operator="arithmetic" k2="-1" k3="1"/>
<feColorMatrix type="matrix" values="0 0 0 0 1 0 0 0 0 1 0 0 0 0 1 0 0 0 0.25 0"/>
<feBlend mode="normal" in2="shape" result="effect1_innerShadow_1_2"/>
</filter>
<filter id="filter1_f_1_2" x="259" y="-87" width="1401" height="898" filterUnits="userSpaceOnUse" color-interpolation-filters="sRGB">
<feFlood flood-opacity="0" result="BackgroundImageFix"/>
<feBlend mode="normal" in="SourceGraphic" in2="BackgroundImageFix" result="shape"/>
<feGaussianBlur stdDeviation="50" result="effect1_foregroundBlur_1_2"/>
</filter>
<linearGradient id="paint0_linear_1_2" x1="1430.3" y1="326.798" x2="1430.3" y2="812.673" gradientUnits="userSpaceOnUse">
<stop offset="0.28125" stop-color="#6A5F42"/>
<stop offset="1" stop-color="#7E7252"/>
</linearGradient>
<linearGradient id="paint1_linear_1_2" x1="1107.24" y1="0" x2="1107.24" y2="725.788" gradientUnits="userSpaceOnUse">
<stop stop-color="#847757"/>
<stop offset="0.354167" stop-color="#7D7152"/>
<stop offset="1" stop-color="#1C1704"/>
</linearGradient>
<linearGradient id="paint2_linear_1_2" x1="691.929" y1="149.19" x2="691.929" y2="576.598" gradientUnits="userSpaceOnUse">
<stop stop-color="#847757"/>
<stop offset="1" stop-color="#1C1704"/>
</linearGradient>
<clipPath id="clip0_1_2">
<rect width="1920" height="854" fill="white"/>
</clipPath>
</defs>
</svg>
