<svg xmlns="http://www.w3.org/2000/svg" version="1.1" xmlns:xlink="http://www.w3.org/1999/xlink" xmlns:svgjs="http://svgjs.com/svgjs" x="0" y="0" viewBox="0 0 512 512" style="enable-background:new 0 0 512 512" xml:space="preserve" class=""><g><path d="M413.492 128.91C396.2 42.145 311.844-14.172 225.078 3.121 161.618 15.77 111.996 65.36 99.308 128.813 37.79 135.903-6.34 191.52.747 253.043c6.524 56.621 54.48 99.34 111.477 99.3h80.093c8.848 0 16.02-7.171 16.02-16.019 0-8.847-7.172-16.02-16.02-16.02h-80.093c-44.239-.261-79.883-36.331-79.625-80.566.261-44.238 36.332-79.886 80.57-79.625 8.164 0 15.023-6.14 15.922-14.258 8.133-70.304 71.722-120.707 142.031-112.574 59.11 6.836 105.738 53.465 112.574 112.574 1.344 8.262 8.5 14.313 16.867 14.258 44.239 0 80.098 35.86 80.098 80.098 0 44.234-35.86 80.094-80.098 80.094H320.47c-8.848 0-16.02 7.172-16.02 16.02 0 8.847 7.172 16.019 16.02 16.019h80.097c61.926-.387 111.817-50.903 111.434-112.828-.352-56.395-42.531-103.754-98.508-110.606zm0 0" fill="#609966" data-original="#000000"></path><path d="m313.02 385.184-40.61 40.62V224.192c0-8.847-7.172-16.02-16.015-16.02-8.848 0-16.02 7.173-16.02 16.02v201.614l-40.61-40.621c-6.144-6.368-16.288-6.543-22.652-.395-6.363 6.145-6.539 16.285-.394 22.649.133.136.261.265.394.394l67.938 67.953a16.077 16.077 0 0 0 5.176 3.461 15.831 15.831 0 0 0 12.335 0 16.018 16.018 0 0 0 5.172-3.46l67.938-67.954c6.363-6.144 6.539-16.285.394-22.648-6.148-6.364-16.289-6.54-22.652-.395-.133.129-.266.258-.394.395zm0 0" fill="#609966" data-original="#000000"></path></g></svg>