<svg xmlns="http://www.w3.org/2000/svg" version="1.1" xmlns:xlink="http://www.w3.org/1999/xlink" xmlns:svgjs="http://svgjs.com/svgjs" x="0" y="0" viewBox="0 0 512 512" style="enable-background:new 0 0 512 512" xml:space="preserve" class=""><g><path fill-rule="evenodd" d="M256 22.334c127.387 0 230.655 103.268 230.655 230.655 0 103.503-68.173 191.082-162.065 220.286l-3.536.91v-58.76q-.898-11.02-12.567-26.86 48.47-8.265 70.46-28.238 29.171-30.302 29.172-79.202v-16.988q-2.244-20.203-17.952-45.226-2.02 0-4.263-4.361 4.263-13.546 4.263-24.106v-2.755q-3.141-33.976-9.649-33.976-22.664 0-58.118 24.105-29.396-7.116-41.513-7.117h-30.294q-7.18 0-40.166 7.117-33.66-24.105-59.465-24.105-5.835 8.954-8.303 35.354v2.985q4.04 21.12 4.04 22.498-21.992 29.844-21.992 63.591 0 69.1 49.816 94.813 15.932 9.87 45.552 14.233h4.04v2.754q-7.854 8.954-13.688 29.615a81.193 81.193 0 0 1-27.601 4.362h-1.57q-20.197 0-41.29-35.354-15.034-12.856-29.171-12.855l-6.956 2.984q0 3.902 20.868 22.498 4.713 5.509 19.298 35.353 15.035 15.611 47.123 15.612a121.726 121.726 0 0 1 19.299-1.378l1.346 2.755v25.77l-2.258-.345c-105.106-21.507-184.17-114.505-184.17-225.97C25.345 125.603 128.613 22.335 256 22.335z" fill="#609966" data-original="#000000"></path></g></svg>