<svg enable-background="new 0 0 512 512" height="512" viewBox="0 0 512 512" width="512" xmlns="http://www.w3.org/2000/svg"><g id="_x30_5_x2C__lamp_x2C__ceiling_x2C__lights_x2C__ceiling_lamp_x2C__illumination"><g id="XMLID_905_"><g id="XMLID_906_"><g id="XMLID_907_"><g fill="#444145"><path id="XMLID_119_" d="m256 331c-5.523 0-10-4.478-10-10v-260c0-5.523 4.477-10 10-10 5.522 0 10 4.477 10 10v260c0 5.522-4.478 10-10 10z"/><path id="XMLID_118_" d="m116 151c-5.522 0-10-4.477-10-10v-80c0-5.523 4.478-10 10-10s10 4.477 10 10v80c0 5.523-4.478 10-10 10z"/><path id="XMLID_117_" d="m396 151c-5.522 0-10-4.477-10-10v-80c0-5.523 4.478-10 10-10s10 4.477 10 10v80c0 5.523-4.478 10-10 10z"/></g><path id="XMLID_115_" d="m471 71h-430c-5.522 0-10-4.477-10-10v-50c0-5.523 4.478-10 10-10h430c5.522 0 10 4.477 10 10v50c0 5.523-4.478 10-10 10z" fill="#f0c250"/><path id="XMLID_113_" d="m290.654 381.011c-21.102-13.348-48.199-13.353-69.309 0-3.079 1.949-6.977 2.065-10.17.309-3.192-1.759-5.176-5.115-5.176-8.76v-51.56c0-5.522 4.477-10 10-10h80c5.522 0 10 4.478 10 10v51.56c0 3.645-1.983 7.001-5.176 8.76-3.192 1.757-7.087 1.64-10.169-.309z" fill="#544f56"/><path id="XMLID_111_" d="m150.653 201.011c-21.1-13.348-48.2-13.353-69.307 0-3.081 1.949-6.979 2.067-10.17.309-3.193-1.758-5.177-5.115-5.177-8.76v-51.56c0-5.523 4.478-10 10-10h80c5.523 0 10 4.477 10 10v51.56c0 3.645-1.983 7.001-5.177 8.76-3.19 1.757-7.087 1.641-10.169-.309z" fill="#544f56"/><path id="XMLID_109_" d="m430.653 201.011c-21.099-13.348-48.199-13.353-69.307 0-3.081 1.949-6.979 2.067-10.17.309-3.193-1.758-5.177-5.115-5.177-8.76v-51.56c0-5.523 4.478-10 10-10h80c5.522 0 10 4.477 10 10v51.56c0 3.645-1.983 7.001-5.177 8.76-3.19 1.757-7.087 1.641-10.169-.309z" fill="#544f56"/><path id="XMLID_107_" d="m255.156 510.99c-19.107-.452-34.156-16.534-34.156-35.647v-24.343h70v25c0 19.579-16.161 35.456-35.844 34.99z" fill="#f7e07d"/><path id="XMLID_105_" d="m115.156 330.99c-19.107-.452-34.156-16.534-34.156-35.647v-24.343h70v25c0 19.579-16.161 35.456-35.844 34.99z" fill="#f7e07d"/><path id="XMLID_103_" d="m395.156 330.99c-19.107-.452-34.156-16.534-34.156-35.647v-24.343h70v25c0 19.579-16.161 35.456-35.844 34.99z" fill="#f7e07d"/><path id="XMLID_101_" d="m331 471h-150c-5.523 0-10-4.478-10-10v-25c0-46.869 38.131-85 85-85s85 38.131 85 85v25c0 5.522-4.478 10-10 10z" fill="#655e67"/><path id="XMLID_99_" d="m191 291h-150c-5.522 0-10-4.478-10-10v-25c0-46.869 38.131-85 85-85s85 38.131 85 85v25c0 5.522-4.477 10-10 10z" fill="#655e67"/><path id="XMLID_97_" d="m471 291h-150c-5.522 0-10-4.478-10-10v-25c0-46.869 38.131-85 85-85s85 38.131 85 85v25c0 5.522-4.478 10-10 10z" fill="#655e67"/></g></g></g></g></svg>